<?xml version="1.0" encoding="UTF-8"?>
<!DOCTYPE svg PUBLIC "-//W3C//DTD SVG 1.1//EN" "http://www.w3.org/Graphics/SVG/1.1/DTD/svg11.dtd">
<svg xmlns="http://www.w3.org/2000/svg" version="1.1" width="100px" height="50px" style="shape-rendering:geometricPrecision; text-rendering:geometricPrecision; image-rendering:optimizeQuality; fill-rule:evenodd; clip-rule:evenodd" xmlns:xlink="http://www.w3.org/1999/xlink">
<g><path style="opacity:0.401" fill="#685668" d="M 15.5,26.5 C 13.8073,25.5251 12.3073,24.1918 11,22.5C 8.81588,21.8919 6.81588,22.5586 5,24.5C 4.66667,24.1667 4.33333,23.8333 4,23.5C 3.57756,25.4257 2.4109,26.4257 0.5,26.5C 0.166667,26.5 -0.166667,26.5 -0.5,26.5C -0.5,25.1667 -0.5,23.8333 -0.5,22.5C 6.55021,16.4637 12.5502,17.297 17.5,25C 17.1639,26.0299 16.4972,26.5299 15.5,26.5 Z"/></g>
<g><path style="opacity:0.149" fill="#02bbd2" d="M 61.5,20.5 C 64.7307,19.2185 68.0641,19.2185 71.5,20.5C 71.6716,21.4916 71.3382,22.1583 70.5,22.5C 70.1583,21.6618 69.4916,21.3284 68.5,21.5C 66.3926,20.5318 64.0593,20.1984 61.5,20.5 Z"/></g>
<g><path style="opacity:1" fill="#475d64" d="M 21.5,20.5 C 23.1667,20.5 24.8333,20.5 26.5,20.5C 26.2965,22.3904 26.9632,23.8904 28.5,25C 26.9651,25.4962 25.4651,25.3295 24,24.5C 22.9701,24.8361 22.4701,25.5028 22.5,26.5C 21.1667,26.5 19.8333,26.5 18.5,26.5C 18.6535,24.0301 19.6535,22.0301 21.5,20.5 Z"/></g>
<g><path style="opacity:1" fill="#465154" d="M 32.5,20.5 C 39.5306,20.5188 39.864,21.0188 33.5,22C 32.2586,23.4865 32.7586,24.3199 35,24.5C 38.104,24.1493 37.9374,23.6493 34.5,23C 41.1983,22.2071 41.865,23.3737 36.5,26.5C 34.2646,26.7947 32.2646,26.4614 30.5,25.5C 29.5946,24.2976 29.5946,22.9643 30.5,21.5C 30.8417,20.6618 31.5084,20.3284 32.5,20.5 Z"/></g>
<g><path style="opacity:1" fill="#465d65" d="M 44.5,19.5 C 47.2289,20.3894 49.2289,22.2227 50.5,25C 49.5842,25.2784 48.9175,25.7784 48.5,26.5C 46.6112,25.6201 44.6112,25.6201 42.5,26.5C 42.3893,25.8826 42.056,25.3826 41.5,25C 42.5822,23.6703 43.2488,22.1703 43.5,20.5C 43.5,19.8333 43.8333,19.5 44.5,19.5 Z"/></g>
<g><path style="opacity:1" fill="#434444" d="M 50.5,20.5 C 51.1667,20.5 51.8333,20.5 52.5,20.5C 54.5273,20.3379 56.5273,20.5045 58.5,21C 57.552,21.4828 56.552,21.6495 55.5,21.5C 55.6085,23.5138 54.9418,25.1805 53.5,26.5C 53.1667,26.5 52.8333,26.5 52.5,26.5C 52.2865,24.8561 52.6198,23.3561 53.5,22C 52.5632,21.3083 51.8966,21.475 51.5,22.5C 51.1667,22.5 50.8333,22.5 50.5,22.5C 49.4937,22.0623 49.4937,21.3957 50.5,20.5 Z"/></g>
<g><path style="opacity:1" fill="#47646c" d="M 59.5,19.5 C 60.1667,19.8333 60.8333,20.1667 61.5,20.5C 64.0593,20.1984 66.3926,20.5318 68.5,21.5C 68.8417,22.3382 69.5084,22.6716 70.5,22.5C 71.3382,22.1583 71.6716,21.4916 71.5,20.5C 75.1186,20.0439 77.4519,21.5439 78.5,25C 76.9651,25.4962 75.4651,25.3295 74,24.5C 72.9701,24.8361 72.4701,25.5028 72.5,26.5C 67.5372,25.8543 62.5372,25.6876 57.5,26C 58.7101,24.9609 59.7101,23.7942 60.5,22.5C 59.8902,21.609 59.5569,20.609 59.5,19.5 Z"/></g>
<g><path style="opacity:1" fill="#448495" d="M 71.5,20.5 C 77.6237,19.8009 84.2904,19.8009 91.5,20.5C 90.8505,22.4352 90.5172,24.4352 90.5,26.5C 89.5416,26.0472 88.7083,25.3805 88,24.5C 82.8024,26.3155 77.6358,26.9821 72.5,26.5C 72.4701,25.5028 72.9701,24.8361 74,24.5C 75.4651,25.3295 76.9651,25.4962 78.5,25C 77.4519,21.5439 75.1186,20.0439 71.5,20.5 Z"/></g>
<g><path style="opacity:1" fill="#434443" d="M 91.5,20.5 C 92.552,20.3505 93.552,20.5172 94.5,21C 93.8695,23.099 92.8695,24.9323 91.5,26.5C 91.1667,26.5 90.8333,26.5 90.5,26.5C 90.5172,24.4352 90.8505,22.4352 91.5,20.5 Z"/></g>
<g><path style="opacity:0.325" fill="#717171" d="M 15.5,26.5 C 10.5,27.8333 5.5,27.8333 0.5,26.5C 2.4109,26.4257 3.57756,25.4257 4,23.5C 4.33333,23.8333 4.66667,24.1667 5,24.5C 6.81588,22.5586 8.81588,21.8919 11,22.5C 12.3073,24.1918 13.8073,25.5251 15.5,26.5 Z"/></g>
<g><path style="opacity:0.157" fill="#04b6d0" d="M 44.5,19.5 C 46.5648,19.5172 48.5648,19.8505 50.5,20.5C 49.4937,21.3957 49.4937,22.0623 50.5,22.5C 50.8333,23.8333 51.1667,23.8333 51.5,22.5C 51.8966,21.475 52.5632,21.3083 53.5,22C 52.6198,23.3561 52.2865,24.8561 52.5,26.5C 51.1667,26.5 49.8333,26.5 48.5,26.5C 48.9175,25.7784 49.5842,25.2784 50.5,25C 49.2289,22.2227 47.2289,20.3894 44.5,19.5 Z"/></g>
<g><path style="opacity:0.275" fill="#03bdd3" d="M 21.5,20.5 C 23.2646,19.5386 25.2646,19.2053 27.5,19.5C 27.4017,22.2476 28.4017,22.9143 30.5,21.5C 29.5946,22.9643 29.5946,24.2976 30.5,25.5C 27.7311,26.296 25.0644,26.6294 22.5,26.5C 22.4701,25.5028 22.9701,24.8361 24,24.5C 25.4651,25.3295 26.9651,25.4962 28.5,25C 26.9632,23.8904 26.2965,22.3904 26.5,20.5C 24.8333,20.5 23.1667,20.5 21.5,20.5 Z"/></g>
<g><path style="opacity:0.063" fill="#08b5d1" d="M 91.5,20.5 C 92.5676,19.5655 93.901,19.2322 95.5,19.5C 95.0074,21.8056 94.6741,24.139 94.5,26.5C 93.5,26.5 92.5,26.5 91.5,26.5C 92.5,26.5 93.5,26.5 94.5,26.5C 94.6741,24.139 95.0074,21.8056 95.5,19.5C 93.901,19.2322 92.5676,19.5655 91.5,20.5 Z"/></g>
<g><path style="opacity:0.11" fill="#08bcd1" d="M 32.5,20.5 C 36.1781,19.9351 39.8448,19.9351 43.5,20.5C 43.2488,22.1703 42.5822,23.6703 41.5,25C 42.056,25.3826 42.3893,25.8826 42.5,26.5C 40.6112,25.6201 38.6112,25.6201 36.5,26.5C 41.865,23.3737 41.1983,22.2071 34.5,23C 37.9374,23.6493 38.104,24.1493 35,24.5C 32.7586,24.3199 32.2586,23.4865 33.5,22C 39.864,21.0188 39.5306,20.5188 32.5,20.5 Z"/></g>
<g><path style="opacity:0.035" fill="#06b7ce" d="M 52.5,20.5 C 54.6074,19.5318 56.9407,19.1984 59.5,19.5C 59.5569,20.609 59.8902,21.609 60.5,22.5C 59.1667,22.5 57.8333,22.5 56.5,22.5C 56.5,23.8333 56.5,25.1667 56.5,26.5C 55.5,26.5 54.5,26.5 53.5,26.5C 54.9418,25.1805 55.6085,23.5138 55.5,21.5C 56.552,21.6495 57.552,21.4828 58.5,21C 56.5273,20.5045 54.5273,20.3379 52.5,20.5 Z"/></g>
</svg>
